<svg xmlns="http://www.w3.org/2000/svg" viewBox="0 0 1024 768" version="1.1"><g id="react-group-199" stroke="none" stroke-width="1" fill="transparent" fill-rule="evenodd"><g id="react-group-200"><rect id="react-rect-202" x="0" y="0" width="1024" height="768"></rect><path d="M303.2527,421.0737 C307.9987,456.6657 312.7437,492.2577 317.4897,527.8497 L321.3217,556.5917 C321.8057,560.2187 321.3487,567.3727 323.1917,570.6197 C323.8427,571.7647 325.5537,572.3087 326.8117,572.9837 C331.1417,575.3087 335.4727,577.6337 339.8027,579.9587 C376.4327,599.6247 413.0627,619.2907 449.6907,638.9567 C484.8447,657.8297 519.9987,676.7037 555.1517,695.5767 C558.7897,697.5307 564.6737,702.6267 568.6007,701.2837 C572.3337,700.0077 576.1487,696.8597 579.5377,694.8747 C586.0437,691.0617 592.5487,687.2497 599.0547,683.4367 C638.4207,660.3667 677.7857,637.2957 717.1517,614.2257 C733.3937,604.7077 749.6347,595.1897 765.8767,585.6707 C770.3197,583.0667 774.7647,580.4627 779.2087,577.8577 C781.5327,576.4957 781.8347,576.5437 782.7497,574.2317 C786.1697,565.5887 787.7537,555.6877 790.1737,546.7197 C792.8407,536.8367 795.5077,526.9537 798.1747,517.0707 C799.3637,512.6607 798.8057,512.0917 796.8657,507.8347 C793.0277,499.4087 789.1897,490.9837 785.3517,482.5587 C776.8327,463.8587 768.3147,445.1587 759.7947,426.4587 C756.3497,418.8967 748.0517,413.5757 742.0777,408.0137 L649.3207,321.6547 C646.9647,319.4607 644.6087,317.2677 642.2527,315.0737 C641.8647,328.2577 639.2597,342.4307 643.0807,355.1667 C649.3517,376.0677 655.6217,396.9687 661.8917,417.8697 C664.9227,427.9727 667.9527,438.0747 670.9837,448.1767 C671.5467,450.0537 674.9747,457.4967 674.0587,459.1477 C673.5507,460.0627 669.2207,460.9887 668.2827,461.3447 C664.2537,462.8777 660.2247,464.4107 656.1947,465.9437 C644.9687,470.2147 633.7427,474.4857 622.5167,478.7557 C612.4197,482.5977 602.3227,486.4387 592.2257,490.2797 C588.8017,491.5827 584.7807,493.9947 581.1647,493.7937 C577.9297,493.6137 574.2517,492.0127 571.1217,491.2067 C565.6187,489.7897 560.1147,488.3717 554.6117,486.9537 C543.8017,484.1697 532.9907,481.3857 522.1807,478.6007 C510.0187,475.4677 499.7477,466.2667 489.3467,459.4567 C471.4687,447.7507 453.5907,436.0447 435.7137,424.3397 C431.6207,421.6597 431.6057,420.1307 429.9747,415.2377 C426.3097,404.2417 422.6437,393.2457 418.9787,382.2497 C417.0217,376.3787 414.6147,370.4827 413.1367,364.4717 C410.6987,354.5517 409.2527,344.2827 407.3217,334.2527 C406.7397,331.2267 406.1567,328.1997 405.5747,325.1737 C398.0877,328.2117 390.6007,331.2507 383.1127,334.2897 C382.0277,334.7297 376.7397,336.0427 376.2697,337.1217 C375.9717,337.8037 377.5447,340.8987 377.7697,341.5637 C383.9777,359.9507 390.1857,378.3367 396.3947,396.7227 C398.3477,402.5067 400.2997,408.2897 402.2527,414.0737 C397.5867,406.7407 392.9197,399.4067 388.2527,392.0737 C384.5867,404.4067 380.9197,416.7407 377.2527,429.0737 C368.5867,419.0737 359.9197,409.0737 351.2527,399.0737 C348.2527,409.0737 345.2527,419.0737 342.2527,429.0737 C332.9197,416.7407 323.5867,404.4067 314.2527,392.0737 C313.1437,398.5097 312.0337,404.9457 310.9237,411.3817 C310.5887,413.3247 310.6557,418.8977 309.3627,420.4357 C308.2977,421.7017 305.2317,421.0737 303.2527,421.0737" id="react-path-203" fill="#00ffbd"></path><g id="react-group-201" transform="translate(94.999879, 58.999801)" fill="#12312a"><path d="M799.187421,439.009599 C798.662421,455.763599 799.026421,477.512599 789.857421,492.243599 C788.377421,494.620599 783.364421,502.026599 782.804421,495.511599 C782.255421,489.115599 783.829421,482.781599 782.270421,476.311599 C781.436421,472.849599 778.631421,465.287599 773.836421,468.414599 C771.393421,470.008599 770.749421,473.943599 769.793421,476.427599 C768.379421,480.102599 766.795421,483.719599 765.306421,487.366599 C760.106421,500.097599 754.718421,515.290599 743.159421,523.715599 C744.672421,512.737599 748.795421,501.015599 746.023421,489.918599 C745.079421,486.136599 742.217421,479.230599 737.290421,481.446599 C732.488421,483.605599 729.376421,493.239599 727.110421,497.529599 C720.239421,510.536599 713.212421,523.298599 705.477421,535.819599 C701.586421,542.117599 697.384421,547.873599 692.293421,553.260599 C689.110421,556.630599 685.141421,562.325599 680.124421,562.827599 C680.124421,553.224599 683.284421,543.946599 686.169421,534.903599 C689.272421,525.179599 692.101421,515.372599 695.147421,505.630599 C697.789421,497.179599 699.958421,488.793599 701.717421,480.127599 C702.446421,476.543599 703.022421,472.832599 706.077421,470.517599 C708.823421,468.437599 713.161421,467.447599 716.223421,465.918599 C724.263421,461.901599 732.532421,457.567599 740.001421,452.574599 C743.068421,450.524599 745.708421,447.876599 748.919421,446.037599 C752.578421,443.942599 755.994421,442.179599 759.379421,439.626599 C773.985421,428.609599 787.152421,415.057599 796.024421,398.925599 C797.464421,405.406599 799.372421,411.739599 799.583421,418.420599 C799.798421,425.270599 799.402421,432.163599 799.187421,439.009599 M678.978421,516.018599 C676.642421,512.073599 673.083421,513.689599 669.947421,515.591599 C665.081421,518.542599 660.202421,521.472599 655.311421,524.386599 C645.358421,530.316599 635.589421,536.556599 625.865421,542.852599 C606.070421,555.665599 585.585421,566.152599 564.716421,576.998599 C544.546421,587.479599 525.173421,599.952599 506.275421,612.560599 C501.733421,615.590599 497.223421,618.691599 492.862421,621.977599 C488.991421,624.894599 485.895421,628.990599 481.820421,631.587599 C477.576421,634.291599 474.659421,632.097599 470.600421,630.103599 C465.524421,627.609599 460.234421,625.519599 455.045421,623.270599 C434.106421,614.192599 413.107421,604.769599 392.738421,594.465599 C372.492421,584.225599 353.309421,572.425599 333.910421,560.706599 C324.671421,555.125599 315.590421,549.190599 306.477421,543.404599 C296.779421,537.247599 286.738421,532.635599 276.565421,527.400599 C272.064421,525.083599 268.077421,521.938599 263.454421,519.832599 C258.594421,517.619599 253.460421,516.031599 249.108421,512.838599 C247.157421,511.406599 245.511421,509.695599 243.281421,508.682599 C241.450421,507.851599 239.372421,507.711599 237.564421,506.828599 C233.886421,505.032599 232.833421,501.387599 232.121421,497.596599 C227.540421,473.259599 225.105421,448.248599 222.450421,423.640599 C220.958421,409.802599 219.293421,396.018599 217.231421,382.253599 C216.301421,376.047599 218.171421,371.239599 219.153421,365.202599 C220.299421,358.151599 220.752421,350.952599 221.520421,343.853599 C225.144421,350.567599 228.278421,357.613599 232.889421,363.740599 C236.288421,368.255599 242.094421,374.658599 248.353421,374.507599 C258.081421,374.272599 257.636421,357.587599 258.028421,350.964599 C262.459421,354.919599 263.803421,361.362599 267.481421,365.956599 C270.839421,370.150599 275.409421,375.354599 280.566421,377.232599 C291.424421,381.187599 290.379421,361.032599 289.782421,355.316599 C289.482421,352.449599 287.863421,347.913599 291.704421,349.220599 C295.241421,350.424599 298.683421,355.415599 301.656421,357.704599 C306.795421,361.662599 312.432421,364.951599 317.704421,368.729599 C324.245421,373.417599 331.303421,376.805599 337.972421,381.171599 C342.143421,383.902599 346.693421,384.515599 351.240421,386.523599 C357.902421,389.466599 363.787421,393.852599 370.128421,397.380599 C382.685421,404.363599 396.615421,410.625599 410.350421,414.835599 C414.794421,416.197599 420.716421,420.037599 424.087421,416.091599 C426.163421,413.663599 427.527421,409.954599 429.289421,407.232599 C431.518421,403.786599 433.885421,400.431599 436.343421,397.144599 C445.081421,385.463599 454.778421,374.433599 465.547421,364.581599 C478.076421,353.120599 491.776421,342.806599 506.430421,334.216599 C512.726421,330.525599 539.016421,313.982599 544.795421,325.625599 C540.046421,325.329599 535.930421,327.066599 531.869421,329.241599 C530.878421,329.772599 525.767421,333.422599 526.963421,330.205599 C525.478421,330.483599 524.176421,332.419599 523.052421,333.280599 C521.109421,334.768599 518.162421,336.486599 515.912421,337.718599 C513.688421,338.935599 510.940421,339.233599 508.913421,340.709599 C508.173421,341.248599 507.724421,342.122599 507.018421,342.705599 L504.994421,342.721599 C504.691421,343.842599 504.388421,344.962599 504.085421,346.083599 C502.941421,342.416599 501.309421,347.185599 499.398421,348.734599 C498.249421,349.665599 496.430421,350.624599 495.077421,351.225599 C494.066421,351.674599 493.910421,350.630599 492.928421,351.424599 C492.056421,352.129599 491.500421,353.682599 490.562421,354.566599 C489.411421,355.648599 487.938421,356.489599 486.655421,357.413599 C484.197421,359.183599 481.597421,360.573599 479.107421,362.251599 C475.757421,364.509599 474.000421,368.392599 470.748421,370.753599 C469.207421,371.871599 466.814421,372.002599 465.980421,372.718599 C463.889421,374.516599 464.578421,377.240599 460.678421,377.360599 C461.033421,377.928599 461.246421,378.544599 461.319421,379.209599 C460.390421,379.049599 459.564421,378.664599 458.841421,378.053599 C459.003421,381.943599 455.178421,383.332599 452.885421,385.727599 C451.563421,387.107599 449.916421,389.048599 448.984421,390.709599 C448.829421,390.987599 448.533421,393.204599 448.469421,393.234599 C448.115421,393.404599 445.960421,391.511599 446.164421,391.669599 C445.563421,395.263599 442.085421,398.661599 440.562421,401.988599 C439.760421,403.741599 438.945421,406.559599 437.364421,407.792599 C436.934421,408.127599 435.611421,407.777599 434.518421,408.942599 C433.716421,409.796599 432.791421,411.375599 432.465421,412.508599 C432.248421,413.265599 432.509421,415.223599 432.197421,415.677599 C431.625421,416.507599 430.735421,415.673599 429.839421,416.287599 C428.183421,417.421599 428.141421,419.193599 425.718421,419.426599 C427.388421,423.484599 437.472421,424.735599 441.137421,425.889599 C451.502421,429.151599 462.376421,432.409599 472.065421,437.405599 C474.571421,438.697599 476.942421,439.762599 477.386421,442.739599 C478.005421,446.881599 475.894421,452.389599 475.491421,456.573599 C474.400421,467.872599 474.177421,479.504599 474.405421,490.851599 C474.621421,501.599599 474.969421,512.448599 475.470421,523.183599 C475.934421,533.136599 477.941421,542.892599 479.024421,552.775599 C479.321421,555.488599 479.123421,567.720599 483.787421,567.104599 C487.681421,566.590599 485.222421,558.235599 485.149421,555.840599 C484.986421,550.539599 486.102421,545.127599 486.055421,539.779599 C486.033421,537.208599 487.157421,534.993599 487.265421,532.533599 C487.372421,530.102599 486.164421,528.181599 486.526421,525.661599 C486.874421,523.243599 494.022421,509.335599 487.157421,510.964599 C487.559421,508.976599 487.911421,506.971599 488.442421,505.012599 C489.176421,505.672599 489.768421,506.443599 490.214421,507.323599 C490.825421,503.051599 490.621421,498.787599 491.000421,494.513599 C491.170421,492.576599 491.955421,490.455599 491.687421,488.503599 C491.738421,487.694599 491.635421,486.900599 491.379421,486.122599 C490.957421,485.675599 490.434421,485.440599 489.813421,485.417599 C489.486421,484.348599 489.402421,484.054599 489.982421,483.005599 C490.231421,482.294599 490.725421,481.850599 491.464421,481.674599 C492.872421,481.507599 493.033421,480.698599 491.946421,479.247599 C492.513421,476.383599 492.586421,474.575599 492.177421,471.717599 C491.833421,469.316599 493.098421,464.667599 491.809421,462.529599 C490.304421,460.030599 489.556421,462.454599 489.276421,458.990599 C489.216421,458.257599 489.168421,456.729599 489.463421,455.998599 C489.786421,455.202599 490.757421,455.528599 490.881421,455.245599 C491.724421,453.320599 491.780421,449.530599 488.797421,449.859599 C488.914421,448.484599 489.031421,447.109599 489.147421,445.734599 C491.302421,448.215599 490.549421,446.115599 491.771421,444.736599 C493.417421,442.878599 495.027421,442.558599 497.380421,441.823599 C503.651421,439.867599 509.693421,436.924599 515.821421,434.536599 C528.797421,429.479599 542.014421,424.964599 554.610421,418.988599 C581.103421,406.417599 607.070421,392.774599 633.725421,380.535599 C631.821421,377.001599 633.005421,376.829599 634.397421,373.511599 C636.255421,374.801599 635.864421,373.901599 637.186421,373.822599 C637.066421,372.715599 637.410421,372.381599 638.218421,372.820599 C638.861421,373.017599 639.520421,373.087599 640.196421,373.029599 C641.846421,373.312599 643.194421,374.220599 644.694421,374.565599 C645.186421,374.928599 645.727421,375.200599 646.317421,375.383599 C646.847421,375.262599 647.299421,375.000599 647.673421,374.596599 C650.101421,375.046599 650.919421,376.875599 651.026421,379.523599 C651.044421,379.984599 649.634421,380.456599 650.038421,381.075599 C650.743421,382.157599 652.641421,381.899599 653.727421,382.037599 C653.489421,383.161599 653.251421,384.284599 653.014421,385.407599 C657.779421,383.208599 656.536421,390.091599 657.981421,392.352599 C658.384421,392.983599 659.281421,392.479599 659.748421,393.210599 C660.356421,394.164599 660.173421,395.515599 660.692421,396.465599 C661.865421,398.614599 663.039421,398.353599 664.208421,400.814599 C670.317421,413.663599 678.444421,425.634599 684.308421,438.759599 C687.100421,445.006599 689.618421,451.360599 692.533421,457.552599 C695.215421,463.251599 696.748421,468.096599 694.836421,474.319599 C690.402421,488.756599 685.660421,503.456599 679.849421,517.401599 C679.559421,516.940599 679.269421,516.479599 678.978421,516.018599 M369.685421,623.780599 C369.269421,624.488599 368.853421,625.196599 368.437421,625.905599 C367.513421,620.590599 369.975421,623.055599 369.685421,623.780599 M350.127421,613.828599 C348.794421,613.429599 349.370421,611.252599 349.413421,610.321599 C350.256421,611.372599 351.083421,612.443599 351.785421,613.597599 C351.232421,613.674599 350.679421,613.751599 350.127421,613.828599 M296.524421,593.396599 C297.924421,592.611599 298.931421,592.047599 300.518421,591.157599 C298.905421,594.301599 298.905421,594.301599 296.524421,593.396599 M212.195421,316.459599 C210.056421,321.709599 216.578421,354.125599 210.506421,355.183599 C209.635421,352.338599 209.526421,344.504599 205.921421,343.569599 C201.448421,342.408599 201.889421,350.473599 201.278421,352.967599 C192.095421,346.578599 188.016421,334.240599 183.629421,324.462599 C178.037421,311.999599 173.637421,299.036599 169.435421,286.050599 C165.842421,274.947599 162.871421,263.648599 159.240421,252.563599 C156.959421,245.601599 154.500421,238.622599 152.966421,231.446599 C152.633421,229.887599 151.322421,225.934599 152.436421,224.452599 C154.055421,222.297599 159.883421,224.765599 161.761421,225.331599 C173.944421,228.997599 186.582421,230.575599 199.099421,232.705599 C213.006421,235.070599 226.882421,237.515599 240.873421,239.349599 C244.369421,239.807599 247.867421,240.241599 251.367421,240.663599 C253.637421,240.937599 257.073421,240.663599 259.229421,241.681599 C263.593421,243.740599 264.522421,251.620599 266.143421,255.708599 C272.190421,270.960599 279.307421,285.730599 285.674421,300.844599 C291.410421,314.459599 295.758421,328.944599 304.003421,341.341599 C297.854421,338.615599 290.061421,324.203599 283.190421,332.510599 C280.236421,336.082599 280.981421,340.788599 281.217421,345.063599 C281.559421,351.243599 281.666421,357.469599 281.666421,363.659599 C274.942421,361.912599 270.424421,354.279599 266.894421,348.872599 C262.072421,341.487599 259.035421,334.528599 256.900421,326.062599 C255.975421,322.396599 253.523421,322.305599 251.344421,320.111599 C249.944421,318.701599 249.240421,316.801599 247.232421,318.852599 C244.708421,321.430599 246.387421,328.569599 246.823421,331.613599 C247.858421,338.856599 251.253421,350.003599 247.953421,356.809599 C243.499421,365.994599 231.564421,342.883599 230.166421,339.545599 C229.455421,337.846599 216.757421,305.261599 212.195421,316.459599 M203.857421,159.049599 C204.609421,159.164599 205.360421,159.279599 206.112421,159.394599 C205.506421,159.929599 204.245421,161.805599 203.215421,161.309599 C203.429421,160.556599 203.643421,159.803599 203.857421,159.049599 M243.687421,150.502599 C243.452421,150.761599 243.215421,151.019599 242.979421,151.278599 C241.901421,149.930599 242.283421,147.965599 242.283421,146.406599 C243.708421,147.267599 244.056421,148.989599 243.687421,150.502599 M246.906421,165.458599 L246.906421,169.864599 C243.920421,168.570599 243.861421,167.902599 246.906421,165.458599 M250.532421,171.060599 C248.440421,170.486599 248.190421,170.023599 248.484421,166.808599 C249.351421,168.609599 249.922421,169.796599 250.532421,171.060599 M262.574421,203.690599 C261.697421,205.946599 256.572421,200.570599 256.760421,198.961599 C256.939421,197.426599 257.726421,196.968599 258.812421,197.955599 C259.171421,198.282599 258.638421,199.463599 258.867421,199.873599 C259.694421,201.357599 261.361421,202.571599 262.574421,203.690599 M262.631421,217.282599 C261.347421,220.488599 259.058421,215.439599 262.413421,215.301599 C262.633421,215.946599 262.706421,216.606599 262.631421,217.282599 M260.140421,212.227599 C259.643421,211.564599 259.160421,210.892599 258.691421,210.208599 C260.419421,210.557599 261.791421,213.075599 263.614421,211.395599 C263.398421,213.957599 261.578421,214.028599 260.140421,212.227599 M148.395421,170.583599 C145.616421,167.550599 163.737421,165.421599 165.923421,164.900599 C181.787421,161.117599 196.765421,155.643599 211.598421,148.926599 C218.674421,145.722599 225.714421,142.479599 232.624421,138.927599 C235.608421,137.394599 239.698421,136.094599 242.190421,133.792599 C243.969421,132.149599 243.898421,130.906599 246.210421,129.927599 C248.173421,129.098599 248.271421,129.881599 249.170421,128.381599 C249.710421,127.481599 250.321421,124.183599 250.005421,123.207599 C249.144421,120.544599 247.871421,122.703599 246.084421,120.868599 C244.797421,119.545599 245.109421,115.783599 245.460421,114.225599 C245.916421,114.967599 246.178421,115.773599 246.248421,116.641599 C248.187421,115.685599 247.405421,112.402599 249.526421,111.864599 C251.761421,111.298599 251.530421,113.039599 252.113421,114.819599 C253.802421,112.339599 252.448421,110.224599 251.534421,107.802599 C256.181421,106.932599 261.174421,106.089599 265.780421,107.635599 C269.111421,108.752599 271.962421,111.499599 275.479421,112.030599 C278.923421,112.549599 279.585421,110.916599 282.124421,109.259599 C284.185421,107.914599 285.955421,109.498599 287.016421,108.482599 C286.362421,111.912599 280.739421,111.443599 281.431421,115.729599 C281.743421,117.658599 284.107421,119.391599 285.183421,120.892599 C286.534421,122.776599 287.611421,124.859599 288.531421,126.982599 C292.110421,135.240599 293.640421,144.823599 295.142421,153.654599 C298.848421,175.452599 299.317421,197.680599 302.803421,219.548599 C304.464421,229.964599 306.129421,240.386599 306.992421,250.904599 C307.208421,253.534599 308.814421,259.499599 307.500421,262.029599 C306.389421,264.165599 303.917421,264.171599 301.747421,264.688599 C297.501421,265.697599 293.514421,267.068599 289.441421,268.587599 C285.790421,269.948599 284.729421,270.783599 282.385421,267.348599 C280.118421,264.024599 278.997421,260.062599 277.375421,256.418599 C275.309421,251.775599 272.813421,247.295599 270.417421,242.816599 C275.124421,242.816599 277.833421,240.275599 277.708421,235.492599 C277.572421,230.194599 273.215421,228.937599 271.419421,224.583599 C269.672421,226.852599 269.525421,226.916599 268.280421,224.762599 C266.856421,222.299599 265.895421,217.792599 265.024421,214.998599 C265.647421,215.663599 266.270421,216.328599 266.893421,216.992599 C268.464421,214.830599 266.003421,211.422599 265.180421,209.386599 C263.910421,206.242599 263.686421,202.843599 262.481421,199.708599 C261.824421,197.997599 260.302421,196.650599 259.929421,194.865599 C259.680421,193.670599 260.678421,192.533599 260.441421,191.320599 C260.029421,189.208599 257.640421,186.942599 256.897421,184.794599 C255.754421,181.490599 254.513421,178.581599 253.095421,175.362599 C251.176421,171.005599 251.622421,166.433599 251.271421,161.796599 C250.907421,156.988599 249.367421,152.388599 248.823421,147.601599 C248.447421,144.294599 249.624421,140.130599 247.122421,137.481599 C246.829421,141.884599 248.091421,141.816599 243.954421,142.608599 C239.244421,143.509599 235.828421,147.018599 231.375421,148.065599 C230.457421,148.281599 229.788421,144.271599 230.146421,149.741599 C228.010421,148.164599 223.451421,150.122599 225.152421,151.058599 C223.863421,152.437599 221.324421,151.483599 220.900421,153.549599 C216.519421,149.290599 209.494421,163.787599 204.277421,156.225599 C203.416421,161.350599 199.705421,164.380599 194.723421,165.058599 C192.218421,165.398599 190.674421,166.233599 188.451421,166.984599 C188.000421,167.135599 187.834421,167.784599 187.300421,167.959599 C186.484421,168.225599 185.286421,167.422599 184.698421,167.578599 C183.501421,167.896599 182.170421,169.471599 180.499421,169.784599 C178.583421,170.143599 176.493421,169.978599 174.575421,169.756599 C172.177421,169.478599 171.122421,169.194599 168.774421,169.984599 C166.662421,170.695599 164.400421,172.686599 162.440421,170.518599 C159.361421,175.845599 152.020421,174.543599 148.395421,170.583599 M290.739421,106.300599 C288.409421,106.021599 290.027421,104.017599 291.106421,103.415599 C294.038421,101.781599 293.255421,106.602599 290.739421,106.300599 M161.719421,125.416599 C175.395421,105.686599 198.787421,92.1305992 219.369421,80.7245992 C230.611421,74.4945992 242.086421,68.4555992 253.890421,63.3565992 C259.759421,60.8225992 265.696421,58.3865992 271.689421,56.1605992 C274.889421,54.9715992 278.128421,53.8905992 281.369421,52.8145992 C282.265421,52.5175992 283.895421,51.6055992 284.833421,51.6945992 C284.671421,51.6785992 287.164421,52.3565992 286.674421,52.5695992 C288.280421,51.8705992 289.044421,50.0475992 290.932421,49.3185992 C293.054421,48.4985992 295.757421,48.1595992 298.030421,48.0855992 C300.041421,48.0195992 301.782421,48.8505992 303.698421,48.9155992 C304.957421,48.9575992 306.027421,48.3595992 307.260421,48.2715992 C307.891421,48.2275992 307.835421,49.1715992 308.215421,49.2265992 C308.380421,49.2505992 310.060421,48.6195992 310.076421,48.6305992 C310.688421,49.0235992 311.230421,50.5575992 311.783421,51.1565992 C313.369421,52.8745992 315.697421,54.0715992 317.812421,54.9755992 C320.386421,56.0755992 326.665421,57.1815992 323.755421,61.2515992 C325.822421,60.9545992 326.784421,62.8225992 324.196421,63.2955992 C322.794421,63.5525992 322.195421,62.2685992 321.154421,61.3925992 C318.749421,59.3725992 312.911421,56.4965992 309.447421,56.6265992 C307.498421,56.6995992 305.992421,58.1785992 304.195421,58.7155992 C302.426421,59.2435992 301.550421,58.4245992 299.998421,58.5545992 C298.184421,58.7055992 297.016421,60.2405992 295.287421,60.5135992 C293.668421,60.7695992 292.766421,59.6655992 291.319421,59.7425992 C289.599421,59.8335992 287.933421,61.3275992 286.291421,61.8295992 C283.679421,62.6275992 281.761421,63.1715992 279.211421,64.4945992 C274.269421,67.0595992 268.750421,68.0335992 263.657421,70.2415992 C259.585421,72.0065992 254.968421,72.9355992 251.200421,74.8875992 C247.010421,77.0565992 242.801421,79.2175992 238.698421,81.5745992 C235.734421,83.2775992 229.708421,83.8635992 226.440421,83.4305992 C226.393421,89.4485992 223.431421,85.2295992 220.446421,87.8655992 C221.152421,88.4885992 221.954421,88.9465992 222.849421,89.2395992 C219.614421,90.5315992 216.624421,92.1395992 213.490421,93.6245992 C210.251421,95.1605992 206.795421,95.4985992 204.667421,98.4035992 C202.707421,101.080599 203.371421,99.6995992 200.446421,100.753599 C199.104421,101.237599 197.937421,102.713599 196.970421,103.704599 C195.308421,105.408599 194.940421,107.988599 193.991421,104.486599 C193.714421,104.913599 192.624421,107.632599 192.412421,107.701599 C191.223421,106.439599 191.052421,107.935599 190.387421,108.470599 C190.737421,109.633599 190.237421,110.395599 188.887421,110.756599 C188.204421,111.264599 187.512421,111.762599 186.813421,112.249599 C184.277421,114.008599 181.049421,115.517599 179.263421,118.138599 C177.946421,117.361599 177.458421,116.020599 178.260421,114.651599 C175.743421,116.971599 172.740421,119.354599 172.059421,122.925599 C171.746421,122.623599 171.381421,122.405599 170.967421,122.271599 C169.945421,122.961599 171.276421,125.017599 171.924421,125.480599 C174.750421,124.382599 171.218421,124.780599 173.117421,124.957599 C173.658421,125.007599 174.214421,125.412599 174.811421,125.419599 C176.562421,125.442599 178.207421,125.358599 179.943421,125.091599 C183.771421,124.501599 187.533421,123.402599 191.239421,122.300599 C195.275421,121.100599 199.312421,119.902599 203.259421,118.430599 C206.509421,117.218599 209.705421,115.867599 212.900421,114.521599 C214.176421,113.983599 215.451421,113.438599 216.729421,112.904599 C219.156421,111.890599 220.436421,110.224599 220.097421,113.078599 C222.030421,112.757599 223.705421,110.025599 225.189421,108.910599 C227.277421,107.343599 229.625421,106.174599 232.099421,105.374599 C233.101421,105.050599 233.837421,104.638599 234.873421,104.635599 C235.381421,104.634599 235.685421,106.066599 236.005421,105.988599 C238.225421,105.450599 237.213421,104.220599 238.211421,102.448599 C240.394421,98.5755992 246.274421,96.4335992 249.885421,94.2335992 C252.177421,92.8365992 253.804421,90.9575992 255.920421,89.4105992 C256.910421,88.6875992 257.629421,88.3675992 258.666421,88.0615992 C259.460421,87.8265992 260.434421,89.6505992 260.949421,87.8175992 C259.102421,87.0625992 257.579421,86.1315992 255.802421,85.5805992 C254.545421,85.1895992 256.053421,83.8525992 254.061421,84.6485992 C253.261421,84.9685992 252.986421,86.5165992 252.692421,87.1645992 C250.467421,85.1775992 244.211421,87.2365992 241.571421,88.0685992 C241.389421,88.1255992 240.574421,87.6955992 240.190421,87.7215992 C238.666421,87.8235992 237.605421,89.8745992 236.602421,90.7585992 C233.935421,93.1075992 231.042421,94.0895992 227.758421,95.4305992 C228.632421,90.6555992 235.055421,88.6995992 238.804421,86.8705992 C244.284421,84.1965992 249.386421,80.7835992 255.386421,79.3455992 C259.382421,78.3865992 264.677421,77.6155992 266.403421,82.2615992 C267.436421,85.0465992 267.566421,91.9655992 264.071421,93.2505992 C263.702421,91.9505992 264.884421,90.8395992 265.240421,89.7115992 C261.761421,91.0395992 261.188421,95.2185992 258.546421,97.3995992 C257.061421,98.6245992 256.530421,99.0175992 255.812421,100.201599 C255.099421,101.377599 254.757421,102.474599 253.086421,103.725599 C250.355421,97.9245992 250.817421,105.870599 249.432421,106.867599 C249.989421,106.466599 247.175421,107.637599 247.511421,107.513599 C247.381421,107.561599 246.155421,105.575599 245.360421,105.617599 C243.913421,105.693599 244.191421,107.286599 243.494421,108.088599 C241.131421,110.802599 238.078421,112.582599 234.275421,112.155599 C234.186421,114.086599 234.782421,116.393599 232.145421,116.569599 L231.799421,112.288599 C230.364421,113.740599 228.475421,115.119599 227.307421,116.800599 C225.978421,118.713599 226.120421,119.891599 223.915421,121.166599 C221.611421,122.499599 216.709421,125.125599 213.967421,125.352599 C214.645421,124.390599 214.525421,123.521599 213.609421,122.747599 C212.230421,124.169599 210.194421,124.309599 208.726421,125.593599 C213.822421,127.722599 204.811421,127.612599 203.668421,127.853599 C202.903421,128.015599 202.235421,128.712599 201.460421,128.869599 C200.431421,129.078599 200.298421,127.996599 199.412421,128.339599 C198.116421,128.841599 198.642421,130.258599 197.286421,130.970599 C196.312421,131.482599 194.660421,131.475599 193.561421,131.961599 C190.942421,133.121599 185.363421,135.690599 183.593421,132.574599 C182.696421,137.920599 173.535421,134.666599 170.144421,134.306599 C165.500421,133.813599 157.411421,131.633599 161.719421,125.416599 M181.225421,70.7185992 C181.882421,70.1575992 182.540421,70.1985992 183.198421,70.8425992 C182.282421,66.0045992 189.367421,63.6555992 192.458421,61.5985992 C196.558421,58.8705992 201.384421,53.5775992 206.749421,53.9965992 C205.834421,54.6745992 204.921421,55.3525992 204.007421,56.0305992 C205.312421,56.1995992 206.616421,56.3685992 207.919421,56.5375992 C207.184421,57.6175992 206.448421,58.6965992 205.711421,59.7755992 C204.507421,53.1395992 198.225421,61.5175992 196.407421,62.7385992 C194.576421,63.9675992 192.750421,64.8835992 191.123421,66.3825992 C189.511421,67.8675992 188.056421,70.5415992 185.391421,69.2055992 C185.148421,72.9955992 182.101421,71.9675992 179.994421,74.0665992 C179.906421,72.7495992 180.660421,71.8185992 181.225421,70.7185992 M209.059421,51.7995992 C215.544421,49.3705992 221.190421,44.8795992 227.301421,41.6715992 C233.138421,38.6065992 239.093421,35.8545992 245.027421,32.9955992 C248.037421,31.5445992 253.551421,27.7925992 256.992421,29.7045992 C261.635421,32.2865992 255.243421,33.1195992 253.583421,34.0135992 C252.969421,30.0375992 250.818421,33.6395992 252.103421,35.8515992 C248.560421,34.3215992 240.833421,40.3075992 237.453421,41.9585992 C236.688421,42.3325992 237.031421,42.5485992 236.161421,42.9885992 C235.947421,43.0965992 233.729421,43.6015992 233.094421,43.8145992 C229.912421,44.8795992 227.815421,44.0335992 226.444421,47.8745992 C226.157421,46.9705992 225.870421,46.0655992 225.583421,45.1605992 C223.591421,49.6335992 217.536421,51.5915992 213.664421,54.2365992 C212.666421,54.9185992 209.816421,57.5635992 208.550421,57.0165992 C206.788421,56.2545992 207.495421,52.3845992 209.059421,51.7995992 M326.046421,65.2855992 C328.784421,65.4665992 326.144421,66.7435992 326.896421,67.5875992 C326.811421,67.4925992 328.545421,68.9715992 328.318421,68.5655992 C328.624421,69.1115992 329.359421,69.0915992 329.735421,70.2015992 C331.030421,74.0185992 325.375421,77.9625992 323.468421,80.1285992 C319.760421,84.3415992 317.617421,89.6765992 313.753421,93.7545992 C312.008421,95.5965992 310.272421,96.8685992 307.853421,97.5555992 C306.160421,98.0365992 304.369421,97.5215992 302.813421,99.1495992 C301.560421,100.460599 301.844421,101.205599 300.459421,101.902599 C298.019421,103.131599 296.944421,102.053599 294.570421,104.709599 C292.527421,99.1555992 298.397421,99.1645992 301.460421,96.0605992 C305.688421,91.7755992 310.321421,87.4525992 314.286421,82.8685992 C317.808421,78.7955992 319.219421,75.2245992 320.891421,70.2765992 C321.418421,68.7165992 321.992421,65.3715992 323.445421,64.3925992 C325.708421,62.8685992 324.350421,65.1725992 326.046421,65.2855992 M339.510421,209.565599 C346.691421,201.533599 355.599421,194.321599 365.255421,189.483599 C368.706421,187.753599 373.619421,185.483599 377.196421,188.146599 C380.704421,190.756599 379.949421,195.963599 378.535421,199.505599 C377.180421,198.973599 378.459421,193.995599 377.756421,192.765599 C376.222421,190.081599 372.912421,191.506599 370.660421,192.406599 C368.022421,193.460599 365.668421,194.624599 363.579421,196.537599 C362.731421,197.312599 361.108421,198.007599 360.565421,198.540599 C359.749421,198.201599 359.268421,198.448599 359.124421,199.280599 C359.292421,199.790599 359.272421,200.292599 359.063421,200.786599 C358.944421,200.943599 357.883421,200.299599 357.732421,200.428599 C357.044421,201.017599 356.400421,201.710599 355.723421,202.257599 C354.364421,203.356599 353.208421,203.876599 351.957421,205.408599 C349.541421,208.369599 346.345421,210.104599 343.918421,212.925599 C343.370421,213.563599 342.713421,215.198599 342.590421,215.341599 C341.363421,216.773599 339.544421,217.906599 338.160421,219.422599 C335.767421,222.041599 333.212421,223.799599 330.451421,226.045599 C329.262421,227.011599 327.875421,228.052599 327.084421,229.396599 C326.724421,230.009599 326.521421,233.369599 326.508421,233.383599 C323.800421,236.351599 324.327421,230.385599 324.531421,229.637599 C326.730421,221.588599 334.165421,215.545599 339.510421,209.565599 M324.729421,263.992599 C325.066421,265.256599 325.343421,266.301599 325.685421,267.584599 C323.538421,265.823599 323.538421,265.823599 324.729421,263.992599 M322.410421,268.132599 C321.621421,268.927599 320.828421,269.717599 320.029421,270.502599 C318.272421,268.645599 322.732421,267.814599 322.410421,268.132599 M321.295421,236.170599 C320.455421,239.568599 317.380421,243.687599 315.266421,246.369599 C315.499421,246.073599 313.462421,246.668599 313.230421,246.803599 C312.477421,247.239599 314.280421,250.065599 311.671421,248.802599 C310.745421,249.326599 312.568421,251.460599 311.310421,252.415599 C307.674421,244.130599 317.602421,236.952599 321.446421,230.802599 C323.326421,232.528599 321.767421,234.265599 321.295421,236.170599 M297.678421,280.964599 C300.329421,281.646599 301.708421,281.217599 303.498421,278.613599 C304.574421,277.049599 304.967421,274.279599 307.428421,276.619599 L307.862421,273.610599 C311.375421,275.051599 311.080421,280.259599 312.615421,283.145599 C313.362421,279.880599 315.131421,270.759599 320.548421,272.222599 C326.629421,273.865599 316.508421,284.323599 315.568421,286.885599 C313.501421,283.677599 314.314421,286.661599 312.737421,287.113599 C311.384421,287.502599 309.270421,286.506599 307.626421,286.596599 C302.624421,286.868599 298.230421,289.118599 293.661421,291.023599 C292.504421,287.904599 291.348421,284.785599 290.191421,281.666599 C292.881421,281.873599 298.443421,274.713599 299.233421,279.917599 C297.238421,279.570599 296.676421,279.658599 295.704421,281.474599 C296.325421,281.159599 296.983421,280.989599 297.678421,280.964599 M308.906421,321.675599 C308.898421,321.650599 314.080421,321.970599 314.542421,321.801599 C318.088421,320.506599 316.777421,316.484599 317.502421,313.641599 C318.964421,314.985599 318.189421,317.438599 318.640421,319.177599 C319.169421,321.221599 320.701421,322.963599 320.843421,325.149599 C321.166421,330.088599 317.113421,328.992599 314.041421,330.590599 C311.416421,331.956599 311.125421,333.674599 308.908421,329.993599 C308.308421,328.997599 307.018421,326.402599 307.150421,325.128599 C307.280421,323.866599 309.279421,322.817599 308.906421,321.675599 M313.082421,343.047599 L311.649421,341.442599 C315.919421,342.749599 313.401421,340.784599 314.383421,338.097599 C317.660421,340.279599 320.333421,342.522599 322.926421,338.153599 L327.406421,356.223599 C324.397421,356.931599 320.515421,352.282599 318.451421,350.685599 C317.259421,349.762599 310.644421,346.207599 314.616421,345.171599 C314.104421,344.463599 313.593421,343.755599 313.082421,343.047599 M342.326421,286.305599 C339.839421,288.670599 337.334421,289.994599 334.626421,291.853599 C332.251421,293.485599 333.069421,295.358599 331.010421,297.178599 C329.643421,298.388599 326.438421,299.620599 324.749421,300.543599 C321.740421,302.187599 319.045421,302.500599 315.950421,300.660599 C316.792421,307.441599 312.148421,307.972599 306.367421,309.315599 C303.610421,309.956599 301.978421,310.935599 299.991421,308.410599 C298.630421,306.682599 298.097421,303.553599 299.790421,301.972599 C302.479421,299.460599 309.643421,300.327599 313.093421,298.747599 C315.711421,297.549599 318.378421,290.798599 321.608421,293.255599 C319.941421,290.600599 321.882421,289.885599 323.331421,287.992599 C324.918421,285.917599 325.893421,283.491599 327.535421,281.433599 C330.655421,277.521599 335.445421,273.586599 339.876421,271.227599 C343.775421,269.152599 345.822421,270.621599 346.406421,274.979599 C346.700421,277.170599 346.689421,280.434599 345.462421,282.378599 C345.071421,282.998599 343.780421,283.005599 343.389421,283.587599 C342.708421,284.604599 343.333421,285.347599 342.326421,286.305599 M388.079421,233.712599 C391.190421,236.120599 390.887421,241.180599 391.377421,244.626599 C392.068421,249.483599 391.567421,254.183599 391.493421,259.130599 C391.415421,264.313599 388.872421,267.689599 387.675421,272.547599 C386.345421,277.951599 384.628421,280.813599 381.644421,285.348599 C384.880421,285.857599 380.064421,295.521599 379.270421,296.772599 C378.408421,298.130599 371.457421,304.388599 374.437421,304.388599 C372.793421,306.556599 371.003421,308.781599 369.365421,310.889599 C368.720421,311.719599 367.589421,312.045599 367.081421,312.631599 C366.046421,313.822599 365.983421,314.884599 365.242421,316.274599 C364.117421,318.383599 363.747421,317.820599 362.268421,319.350599 C361.247421,320.407599 360.577421,321.802599 359.574421,322.815599 C356.342421,326.078599 355.930421,323.405599 354.123421,320.892599 C353.846421,321.565599 353.354421,321.987599 352.647421,322.158599 C352.081421,319.314599 355.977421,316.441599 357.615421,314.713599 C360.298421,311.881599 362.750421,308.761599 365.122421,305.664599 C370.202421,299.028599 374.767421,291.978599 378.369421,284.426599 C382.201421,276.389599 385.262421,267.691599 386.852421,258.923599 C388.064421,252.240599 389.216421,240.776599 380.286421,239.076599 C373.791421,237.840599 366.631421,241.786599 361.277421,244.981599 C358.014421,246.927599 354.733421,248.862599 351.625421,251.051599 C348.251421,253.425599 345.335421,256.785599 341.673421,258.690599 C343.676421,257.648599 337.067421,260.784599 338.079421,259.902599 C337.605421,260.314599 338.014421,261.573599 337.701421,262.141599 C337.293421,262.880599 335.875421,263.610599 335.239421,264.088599 C333.559421,265.350599 330.875421,266.641599 330.111421,268.725599 C319.455421,261.123599 340.646421,247.627599 346.078421,244.190599 C356.853421,237.373599 375.602421,224.053599 388.079421,233.712599 M416.823421,159.779599 C416.721421,154.305599 421.179421,146.832599 424.190421,142.368599 C425.663421,140.183599 428.016421,140.270599 428.879421,137.693599 C429.377421,136.209599 428.724421,134.653599 428.872421,133.163599 C429.072421,131.148599 429.946421,129.532599 430.954421,127.800599 C440.067421,112.143599 451.139421,98.2855992 462.932421,84.6255992 C468.747421,77.8915992 474.260421,70.8985992 480.531421,64.5725992 C483.151421,61.9305992 490.192421,52.4325992 494.220421,53.3825992 C496.353421,53.8855992 497.594421,57.1405992 498.557421,58.8015992 C500.149421,61.5485992 501.900421,64.1215992 503.835421,66.6475992 C508.942421,73.3165992 514.833421,79.1705992 521.790421,83.8975992 C526.134421,86.8515992 530.523421,89.7225992 534.771421,92.8175992 C538.268421,95.3645992 543.555421,98.2765992 546.052421,101.852599 C548.550421,105.429599 544.882421,108.458599 542.877421,111.428599 C539.761421,116.047599 536.895421,120.833599 533.766421,125.447599 C532.523421,124.553599 532.844421,122.737599 531.992421,121.592599 C531.236421,120.577599 530.167421,120.164599 529.123421,119.537599 C527.122421,118.338599 525.158421,116.872599 523.351421,118.881599 C520.188421,122.397599 524.537421,130.708599 529.225421,129.796599 C529.777421,133.266599 520.416421,138.981599 518.070421,140.891599 C510.870421,146.749599 503.443421,151.842599 493.932421,152.372599 C490.083421,152.586599 486.078421,152.294599 482.421421,151.006599 C480.669421,150.389599 478.732421,149.542599 477.389421,148.197599 C475.781421,146.587599 475.371421,144.191599 473.811421,142.597599 C472.458421,141.214599 470.600421,141.001599 469.248421,139.613599 C467.894421,138.224599 467.225421,136.030599 466.676421,134.231599 C465.602421,130.716599 465.399421,127.009599 464.367421,123.486599 C463.746421,121.367599 463.236421,118.534599 461.211421,120.570599 C458.270421,123.528599 459.747421,132.829599 460.500421,136.373599 C461.577421,141.429599 464.102421,145.505599 466.747421,149.855599 C469.615421,154.574599 470.674421,158.951599 471.188421,164.411599 C472.150421,174.632599 475.083421,184.440599 479.647421,193.636599 C481.568421,197.508599 483.869421,201.149599 485.943421,204.932599 C486.912421,206.697599 489.083421,212.719599 491.718421,212.687599 C495.928421,212.635599 489.931421,200.358599 489.099421,198.297599 C484.487421,186.882599 480.082421,174.884599 479.094421,162.524599 C485.705421,164.227599 492.911421,165.843599 499.757421,164.764599 C495.338421,174.646599 499.954421,184.485599 499.389421,194.657599 C499.107421,199.758599 498.903421,204.464599 499.008421,209.550599 C499.101421,214.010599 497.087421,218.468599 495.346421,222.501599 C491.888421,230.510599 487.535421,240.390599 481.113421,246.525599 C475.744421,251.654599 468.562421,252.055599 461.547421,250.874599 C445.589421,248.186599 435.104421,235.919599 428.407421,221.987599 C424.104421,213.037599 420.815421,203.483599 418.773421,193.763599 C416.409421,182.514599 417.033421,171.189599 416.823421,159.779599 M437.547421,83.9685992 C422.655421,73.1935992 444.295421,60.9575992 455.310421,62.6235992 C457.894421,63.0135992 462.648421,64.0815992 462.406421,67.4535992 C462.208421,70.2095992 457.611421,73.2815992 455.846421,74.9825992 C450.813421,79.8365992 445.691421,89.8595992 437.547421,83.9685992 M545.881421,323.385599 C545.370421,322.927599 541.202421,324.051599 542.853421,321.585599 C544.225421,319.536599 548.029421,322.104599 549.411421,322.631599 C548.272421,323.418599 547.281421,324.637599 545.881421,323.385599 M483.872421,453.704599 C482.592421,453.862599 481.254421,450.410599 485.868421,452.989599 C485.203421,453.227599 484.537421,453.466599 483.872421,453.704599 M483.740421,509.965599 C483.899421,511.512599 484.372421,512.532599 483.273421,513.657599 C482.344421,512.512599 482.224421,510.897599 483.740421,509.965599 M485.613421,533.211599 C485.477421,534.053599 485.341421,534.895599 485.207421,535.736599 C484.141421,535.197599 483.077421,534.658599 482.011421,534.118599 C483.211421,533.816599 484.413421,533.514599 485.613421,533.211599 M486.917421,513.609599 C488.505421,514.203599 487.766421,512.304599 488.919421,512.037599 C489.332421,514.014599 488.823421,515.707599 487.688421,517.338599 C487.580421,516.952599 486.998421,513.638599 486.917421,513.609599 M527.501421,373.334599 C525.273421,373.050599 524.936421,375.404599 523.275421,376.317599 C522.203421,376.907599 518.939421,376.464599 518.330421,377.593599 C519.134421,377.825599 519.939421,378.058599 520.743421,378.290599 C518.902421,379.282599 517.061421,380.275599 515.220421,381.267599 C519.648421,381.267599 524.262421,379.152599 528.660421,379.773599 C530.519421,380.036599 531.882421,380.664599 533.048421,382.176599 C533.756421,383.094599 534.378421,384.571599 534.492421,385.695599 C534.615421,386.911599 533.667421,387.751599 533.835421,388.331599 C535.817421,388.385599 535.583421,391.636599 535.138421,392.961599 C534.173421,395.834599 530.340421,400.333599 526.905421,398.511599 C528.342421,400.550599 527.976421,401.714599 525.851421,402.897599 C526.044421,402.223599 526.186421,401.044599 525.100421,401.161599 C524.821421,402.291599 524.928421,404.083599 524.005421,404.935599 C522.972421,405.888599 522.050421,404.774599 521.062421,405.394599 C519.891421,406.130599 520.243421,407.285599 519.322421,408.083599 C518.104421,409.137599 517.930421,408.388599 516.474421,408.593599 C514.269421,408.905599 515.676421,407.535599 513.910421,409.321599 C513.299421,409.937599 513.402421,411.540599 512.412421,412.442599 C510.510421,414.173599 505.435421,415.977599 503.613421,413.757599 C499.232421,420.700599 486.101421,422.366599 479.989421,416.885599 C470.241421,408.144599 488.417421,390.367599 494.418421,384.733599 C500.441421,379.079599 507.131421,374.195599 513.900421,369.481599 C517.746421,366.803599 521.693421,364.372599 525.723421,361.986599 C528.209421,360.513599 531.331421,357.824599 534.386421,358.082599 C537.126421,358.314599 539.467421,360.440599 542.352421,360.861599 C544.438421,361.165599 548.491421,361.667599 545.859421,364.497599 C544.628421,365.819599 539.794421,367.957599 538.148421,368.279599 C537.181421,368.468599 536.162421,368.106599 535.204421,368.302599 C533.582421,368.635599 532.468421,370.004599 530.703421,369.830599 C531.262421,372.449599 530.242421,373.682599 527.501421,373.334599 M556.350421,276.104599 C556.351421,278.153599 552.611421,277.642599 551.830421,276.946599 C550.544421,275.801599 550.499421,272.377599 550.022421,270.820599 C552.196421,271.367599 556.348421,273.369599 556.350421,276.104599 M526.222421,208.506599 C534.078421,202.049599 542.338421,196.129599 551.070421,190.915599 C554.197421,189.048599 558.612421,185.282599 562.496421,185.752599 C564.125421,185.950599 567.493421,187.821599 566.266421,189.884599 C566.037421,190.270599 564.224421,190.425599 563.664421,190.705599 C563.029421,191.022599 562.531421,191.896599 561.942421,192.328599 C557.862421,195.321599 552.960421,197.160599 548.867421,200.225599 C545.503421,202.742599 542.366421,205.558599 538.745421,207.718599 C535.271421,209.789599 531.641421,211.100599 528.343421,213.394599 C528.408421,213.348599 524.053421,214.914599 524.907421,215.199599 C521.084421,213.920599 525.122421,209.411599 526.222421,208.506599 M578.600421,206.101599 C583.267421,204.241599 587.833421,201.984599 592.719421,200.734599 C595.157421,200.110599 597.660421,199.641599 600.184421,199.922599 C600.613421,199.171599 601.184421,199.005599 601.898421,199.424599 C602.455421,200.280599 603.189421,200.937599 604.101421,201.396599 C605.493421,202.466599 610.618421,203.865599 609.594421,206.228599 C608.917421,207.791599 603.778421,207.921599 602.368421,208.272599 C598.117421,209.331599 594.153421,211.713599 589.774421,212.298599 C589.363421,212.353599 588.021421,211.855599 588.006421,211.858599 C586.297421,212.231599 584.875421,214.004599 583.407421,214.854599 C580.247421,216.683599 575.707421,216.990599 573.438421,220.147599 C580.786421,225.128599 587.161421,220.188599 593.621421,216.427599 C597.491421,214.175599 601.645421,212.550599 605.874421,211.106599 C608.084421,210.352599 610.314421,209.568599 612.554421,208.906599 C613.481421,208.568599 614.434421,208.325599 615.412421,208.176599 C616.322421,207.995599 616.973421,208.326599 617.366421,209.170599 C620.074421,209.080599 620.306421,207.381599 621.936421,210.550599 C624.234421,215.018599 620.718421,214.791599 617.414421,215.340599 C612.832421,216.100599 608.172421,217.812599 603.657421,218.947599 C602.616421,219.209599 593.485421,221.326599 593.474421,221.401599 C593.060421,224.283599 619.266421,221.614599 621.516421,221.182599 C625.486421,220.418599 629.744421,218.249599 633.854421,218.772599 C637.010421,219.173599 644.199421,223.803599 639.165421,226.879599 C638.174421,222.135599 634.772421,226.053599 632.996421,227.654599 C630.630421,229.785599 627.240421,229.580599 623.995421,230.415599 C619.557421,231.555599 608.196421,235.833599 605.044421,230.379599 C606.041421,235.159599 587.931421,232.730599 585.441421,232.572599 C583.014421,232.417599 579.881421,232.933599 577.535421,232.241599 C576.005421,231.790599 575.154421,230.795599 573.714421,230.571599 C573.361421,230.951599 572.938421,231.210599 572.446421,231.347599 C571.716421,230.978599 571.057421,230.508599 570.469421,229.939599 C565.619421,227.710599 558.115421,226.478599 560.810421,219.377599 C563.352421,212.680599 572.435421,208.559599 578.600421,206.101599 M624.059421,210.240599 C624.180421,209.823599 624.301421,209.406599 624.421421,208.988599 C624.436421,210.267599 627.486421,210.813599 627.134421,212.470599 C626.353421,216.139599 622.833421,210.626599 622.531421,210.025599 C623.041421,210.097599 623.549421,210.168599 624.059421,210.240599 M642.681421,216.336599 C643.034421,217.839599 647.090421,221.039599 646.085421,221.777599 C644.486421,219.603599 640.066421,220.590599 642.681421,216.336599 M574.264421,353.476599 C575.749421,350.531599 580.238421,355.546599 579.764421,350.518599 C582.205421,350.739599 580.681421,352.596599 583.606421,351.780599 C584.702421,351.474599 585.443421,350.259599 586.779421,349.979599 C587.135421,349.904599 588.674421,350.026599 589.205421,350.010599 C590.964421,349.956599 597.858421,349.760599 593.113421,347.453599 C595.769421,345.697599 596.096421,346.588599 598.493421,348.197599 C597.878421,344.871599 601.405421,346.759599 603.047421,347.174599 C601.876421,345.277599 604.782421,343.259599 605.725421,341.977599 C605.387421,343.952599 605.565421,346.163599 608.423421,344.900599 C609.135421,344.586599 608.975421,343.190599 609.540421,342.962599 C610.574421,342.545599 611.152421,343.304599 611.523421,343.261599 C611.888421,343.220599 612.657421,343.425599 613.424421,343.136599 C614.421421,342.761599 613.940421,341.423599 615.204421,341.224599 C616.027421,341.095599 616.628421,342.305599 617.633421,342.315599 C618.149421,342.320599 619.010421,341.796599 619.402421,341.824599 C619.471421,341.829599 619.962421,340.645599 620.565421,340.616599 C621.447421,340.573599 621.806421,342.936599 622.128421,343.395599 C623.672421,345.585599 625.725421,347.013599 628.093421,348.181599 C623.809421,352.109599 615.167421,351.693599 609.780421,353.017599 C606.862421,353.735599 604.373421,354.770599 601.703421,356.104599 C601.059421,356.523599 600.504421,357.037599 600.040421,357.646599 C599.662421,357.395599 599.283421,357.144599 598.905421,356.893599 C597.442421,356.983599 596.058421,356.259599 594.411421,356.537599 C589.324421,357.395599 585.341421,361.206599 580.171421,362.055599 C577.848421,362.437599 575.939421,362.970599 574.426421,360.956599 C573.098421,359.190599 573.318421,355.354599 574.264421,353.476599 M567.289421,330.003599 C568.442421,330.978599 567.055421,334.152599 569.287421,333.807599 C570.871421,333.562599 570.555421,331.105599 571.799421,330.584599 C573.433421,329.901599 574.419421,331.522599 575.955421,331.372599 C578.818421,331.090599 578.654421,328.590599 576.235421,327.492599 C578.750421,326.828599 579.556421,329.802599 581.783421,329.775599 C584.708421,329.740599 584.010421,326.289599 586.499421,325.717599 C587.577421,325.469599 587.217421,327.052599 587.916421,327.249599 C589.316421,327.642599 590.291421,326.967599 591.529421,326.373599 C592.637421,325.842599 593.426421,324.816599 594.637421,324.468599 C595.188421,324.309599 596.588421,324.600599 596.992421,324.305599 C597.807421,323.711599 598.537421,321.397599 599.339421,321.091599 C599.175421,321.153599 601.805421,322.471599 602.182421,322.595599 C601.951421,323.572599 601.416421,323.688599 600.576421,322.944599 C600.576421,325.149599 606.704421,325.836599 605.447421,323.111599 C608.761421,324.483599 606.293421,325.189599 605.962421,327.104599 C605.830421,327.874599 605.382421,327.853599 605.515421,328.667599 C605.576421,329.042599 607.313421,328.719599 607.291628,329.230599 C607.145421,332.521599 596.656421,333.533599 594.669421,333.823599 C590.555421,334.424599 586.662421,335.435599 582.696421,336.680599 C579.743421,337.607599 574.653421,340.262599 571.511421,340.097599 C566.992421,339.860599 566.403421,333.964599 567.289421,330.003599 M557.192421,296.421599 C556.090421,292.760599 559.625421,285.198599 564.229421,286.143599 C565.361421,286.375599 565.640421,287.313599 566.518421,287.729599 C567.744421,288.311599 569.738421,288.005599 570.801421,288.606599 C573.184421,289.955599 571.983421,293.392599 574.371421,294.634599 C570.601421,295.548599 558.943421,302.240599 557.192421,296.421599 M561.555421,310.645599 C563.179421,309.772599 565.812421,309.660599 566.919421,307.981599 C567.471421,308.363599 568.514421,310.682599 569.503421,310.327599 C569.965421,310.162599 570.442421,308.905599 570.409421,308.906599 C571.290421,308.881599 571.465421,307.688599 572.812421,307.822599 C574.048421,307.946599 575.432421,309.432599 576.533421,309.986599 C576.344421,306.302599 577.288421,305.950599 580.275421,303.978599 C580.930421,303.546599 581.477421,301.924599 582.081421,301.268599 C581.503421,305.134599 582.960421,305.155599 586.047421,305.736599 C589.917421,306.464599 592.328421,308.542599 593.879421,312.281599 C590.581421,311.638599 586.327421,312.412599 585.027421,315.957599 C582.395421,311.148599 572.829421,317.784599 569.734421,319.143599 C567.437421,320.152599 564.765421,321.508599 562.839421,319.157599 C561.483421,317.501599 562.260421,315.509599 562.289421,314.038599 C562.297421,313.576599 562.774421,313.549599 562.730421,312.861599 C562.674421,311.983599 561.531421,311.632599 561.555421,310.645599 M596.765421,386.266599 C595.894421,386.596599 591.411421,386.781599 591.382367,385.296599 C591.358421,383.984599 599.294421,385.306599 596.765421,386.266599 M589.483421,381.462599 C586.091421,383.553599 582.296421,376.185599 581.049421,374.063599 C584.607421,374.518599 586.344421,371.542599 588.440421,369.280599 C590.434421,373.649599 593.462421,371.340599 596.647421,369.881599 C600.403421,368.160599 604.519421,368.147599 608.367421,366.766599 C609.568421,366.335599 610.675421,365.694599 611.847421,365.201599 C612.791421,364.848599 613.732421,364.486599 614.669421,364.115599 C615.334421,363.515599 615.571421,362.776599 615.377421,361.900599 C615.062421,361.164599 615.277421,360.699599 616.022421,360.507599 C616.908421,360.771599 617.812421,360.925599 618.736421,360.966599 C620.219421,360.672599 622.350421,359.273599 620.560421,357.765599 C622.478421,356.023599 624.399421,357.755599 626.246421,358.518599 C625.807421,357.267599 625.370421,356.016599 624.931421,354.765599 C625.847421,355.154599 628.567421,358.954599 628.844421,358.933599 C630.602421,358.801599 630.419421,356.442599 631.429421,355.490599 C632.012421,356.209599 632.179421,361.570599 634.471421,359.764599 C635.451421,358.992599 633.341421,356.362599 632.821421,355.763599 C635.443421,356.355599 637.732421,359.485599 638.441421,361.915599 C637.196421,362.095599 636.045421,361.845599 634.988421,361.163599 C634.312421,364.547599 640.576421,363.176599 641.590421,364.944599 C643.576421,368.405599 630.658421,370.809599 628.975421,371.130599 C625.607421,371.772599 621.632421,372.011599 618.545421,373.504599 C615.587421,374.933599 614.887421,375.342599 611.431421,375.610599 C607.486421,375.916599 603.637421,377.216599 599.821421,378.228599 C596.508421,379.106599 592.420421,379.652599 589.483421,381.462599 M661.583421,257.571599 C664.698421,256.450599 675.190421,250.633599 677.861421,253.220599 C677.579421,252.946599 679.787421,257.508599 679.764421,257.221599 C679.954421,259.594599 679.896421,260.549599 676.975421,261.686599 C674.883421,262.500599 673.061421,260.770599 671.179421,261.457599 C669.112421,262.212599 670.558421,263.548599 669.494421,264.481599 C668.328421,265.504599 666.080421,265.946599 664.629421,266.394599 C661.077421,267.491599 657.497421,268.408599 653.962421,269.590599 C646.769421,271.995599 639.152421,274.233599 631.760421,275.934599 C626.236421,277.205599 616.860421,280.364599 611.770421,276.633599 C611.273421,278.754599 610.059421,278.464599 608.373421,278.773599 C607.050421,279.015599 604.658421,279.670599 603.482421,279.704599 C601.525421,279.761599 596.084421,279.248599 596.833421,276.503599 C596.627421,277.259599 601.065421,274.671599 600.297421,274.510599 C602.182421,274.907599 601.571421,273.958599 603.115421,273.430599 C605.132421,272.741599 607.240421,272.778599 609.299421,272.048599 C614.490421,270.208599 618.844421,267.820599 624.323421,266.667599 C636.838421,264.034599 649.509421,261.916599 661.583421,257.571599 M159.886421,541.163599 C158.872421,541.190599 158.083421,538.309599 161.168421,540.366599 C160.741421,540.632599 160.314421,540.897599 159.886421,541.163599 M135.516421,537.435599 C134.137421,537.788599 133.587421,537.018599 133.868421,535.127599 C135.791421,534.367599 136.340421,535.136599 135.516421,537.435599 M116.702421,533.576599 C116.349421,531.890599 117.599421,531.510599 118.732421,530.753599 C118.618421,532.987599 118.618421,532.987599 116.702421,533.576599 M69.3644212,519.702599 C67.4574212,519.283599 64.9164212,517.418599 64.4794212,520.549599 C64.1604212,519.824599 62.5324212,516.414599 63.2314212,515.625599 C63.5964212,515.212599 64.9784212,517.122599 64.8314212,516.933599 C66.5004212,513.557599 69.3774212,517.631599 70.9854212,518.836599 C70.4454212,519.125599 69.9044212,519.414599 69.3644212,519.702599 M565.180421,146.606599 C565.838421,145.214599 566.615421,144.772599 567.507421,145.281599 C566.105421,148.537599 561.357421,150.302599 565.180421,146.606599 M598.170421,116.042599 C599.346421,118.247599 597.577421,119.179599 596.314421,121.012599 C597.053421,119.035599 597.565421,117.665599 598.170421,116.042599 M741.549421,331.286599 C745.791421,331.285599 754.827421,329.046599 757.385421,333.895599 C759.078421,330.600599 761.002421,336.779599 762.471421,337.770599 C762.636421,337.882599 763.694421,337.073599 764.186421,337.371599 C764.928421,337.820599 765.568421,339.043599 765.993421,339.770599 C767.274421,341.962599 767.825421,344.568599 768.535421,346.980599 C761.126421,346.980599 753.529421,345.255599 746.126421,344.628599 C741.267421,344.216599 736.503421,344.204599 731.637421,344.466599 C730.670421,344.518599 728.750421,344.199599 727.923421,344.381599 C727.083421,344.566599 725.560421,346.277599 724.634421,346.002599 C726.073421,348.703599 744.502421,355.242599 745.908421,352.251599 C744.242421,351.243599 740.542421,350.469599 740.545421,348.033599 C740.548421,345.304599 744.016421,345.309599 745.854421,345.389599 C749.874421,345.565599 756.606421,346.903599 758.254421,351.083599 C758.960421,352.875599 759.177421,357.387599 758.401421,359.117599 C757.900421,360.234599 757.052421,361.577599 755.708421,361.804599 C755.157421,361.897599 754.363421,361.164599 754.279421,361.182599 C751.521421,361.767599 746.416421,363.982599 743.408421,360.859599 C741.239421,363.666599 730.791421,360.600599 727.592421,359.541599 C721.998421,357.689599 714.295421,355.146599 710.897421,349.926599 C706.755421,343.564599 715.176421,338.187599 720.011421,335.601599 C726.620421,332.067599 734.171421,331.289599 741.549421,331.286599 M769.780421,345.996599 C771.081421,346.363599 772.381421,346.731599 773.681421,347.098599 C773.333421,349.378599 768.203421,347.574599 769.780421,345.996599 M809.089421,428.873599 C809.489421,419.738599 806.848421,411.693599 805.323421,402.858599 C804.945421,400.668599 805.331421,396.839599 803.667421,395.038599 C802.078421,393.316599 798.531421,394.716599 798.390421,391.672599 C796.825421,393.505599 796.983421,393.888599 795.054421,391.780599 C795.406421,392.684599 795.457421,393.603599 795.207421,394.539599 C794.010421,393.853599 789.672421,391.575599 790.037421,394.690599 C786.470421,393.901599 787.503421,391.670599 785.468421,389.967599 C785.179421,389.725599 784.018421,390.584599 783.565421,390.218599 C782.747421,389.555599 782.342421,388.953599 781.652421,388.099599 C780.775421,389.159599 779.581421,389.925599 778.509421,390.763599 C777.886421,389.406599 776.673421,388.410599 775.215421,388.080599 C776.578421,390.932599 779.948421,394.626599 775.326421,396.249599 C772.567421,397.217599 768.048421,396.030599 765.126421,396.256599 C754.296421,397.096599 742.434421,394.735599 731.963421,392.155599 C721.206421,389.505599 710.328421,385.764599 700.654421,380.296599 C698.592421,379.130599 697.293421,377.750599 695.517421,376.304599 C693.791421,374.898599 692.536421,374.676599 690.461421,373.777599 C686.726421,372.159599 683.310421,369.564599 680.469421,366.672599 C674.360421,360.453599 668.684421,352.320599 670.385421,343.215599 C672.081421,334.140599 678.319421,327.048599 684.994421,321.072599 C692.877421,314.014599 701.778421,308.121599 711.224421,303.370599 C715.448421,301.247599 726.252421,293.269599 730.425421,297.937599 C733.092421,300.919599 731.592421,304.724599 727.948421,305.387599 C727.049421,305.551599 726.110421,304.948599 725.201421,305.361599 C723.891421,305.957599 724.352421,306.661599 723.811421,307.158599 C722.872421,308.021599 721.874421,309.367599 720.471421,310.115599 C715.574421,312.726599 710.840421,314.795599 706.159421,317.975599 C704.001421,319.440599 701.924421,320.070599 700.022421,321.349599 C698.130421,322.620599 697.700421,324.724599 695.156421,323.426599 C696.062421,327.126599 690.622421,331.088599 688.490421,333.355599 C685.187421,336.865599 681.227421,341.345599 682.768421,346.538599 C685.785421,356.704599 699.416421,364.425599 708.139421,368.894599 C719.025421,374.470599 731.030421,378.909599 743.151421,380.746599 C749.177421,381.659599 755.405421,382.223599 761.476421,382.802599 C766.203421,383.253599 773.457421,381.602599 776.858421,385.859599 C776.963421,380.895599 792.467421,381.333599 795.767421,380.698599 C789.151421,358.083599 776.160421,337.976599 762.272421,319.190599 C755.456421,309.968599 748.762421,300.484599 740.993421,292.030599 C732.487421,282.775599 722.769421,274.504599 713.536421,265.988599 C695.426421,249.285599 674.944421,234.378599 654.102421,221.246599 C633.308421,208.145599 611.773421,195.251599 588.992421,185.910599 C562.973421,175.242599 535.580421,168.225599 508.157421,162.249599 C511.877421,157.509599 517.928421,155.197599 522.691421,151.729599 C524.359421,150.515599 526.613421,147.601599 528.779421,147.203599 C531.125421,146.771599 532.972421,149.295599 534.642421,150.562599 C539.435421,154.198599 542.750421,152.654599 548.240421,152.435599 C551.525421,152.304599 559.304421,154.133599 560.689421,149.690599 C562.531421,152.142599 559.860421,154.108599 558.493421,155.906599 C559.488421,157.294599 560.290421,155.854599 561.273421,155.637599 C561.576421,155.386599 561.878421,155.134599 562.181421,154.883599 C562.669421,154.177599 563.109421,154.173599 563.500421,154.869599 C564.086421,155.751599 564.676421,155.556599 565.270421,154.283599 C565.433421,154.181599 565.595421,154.078599 565.758421,153.976599 C566.468421,153.598599 567.153421,153.000599 567.813421,152.529599 C572.802421,148.964599 577.248421,145.927599 582.755421,143.301599 C587.380421,141.097599 584.893421,136.880599 587.942421,133.902599 C588.632421,133.228599 589.793421,133.566599 590.531421,132.995599 C591.253421,132.434599 591.362421,131.798599 591.889421,131.197599 C593.156421,129.752599 591.648421,128.075599 594.880421,129.844599 L593.714421,123.283599 C600.051421,129.431599 600.026421,111.739599 600.892421,109.121599 C600.778421,109.467599 601.461421,106.788599 601.460421,106.811599 C601.646421,101.502599 602.371421,97.6545992 596.153421,97.3465992 C598.507421,95.8655992 599.227421,98.7575992 600.314421,95.7635992 C600.858421,94.2635992 599.159421,91.6855992 601.867421,92.6525992 C602.438421,89.4645992 601.874421,86.8845992 601.164421,83.7865992 C600.436421,80.6155992 600.864421,78.4995992 600.897421,75.3285992 C600.934421,71.7315992 599.250421,68.1165992 598.711421,64.5745992 C598.289421,61.8005992 598.724421,57.4255992 595.138421,58.4445992 C594.634421,57.6555992 596.405421,55.2285992 596.333421,54.0285992 C596.221421,52.1645992 594.198421,50.2705992 593.625421,48.4805992 C592.782421,49.3505992 591.594421,49.6405992 590.447421,49.2475992 C591.524421,46.8155992 590.513421,45.9985992 589.482421,43.9015992 C588.891421,42.7005992 589.248421,41.3745992 587.983421,40.5135992 C587.258421,40.0195992 586.022421,40.8515992 585.454421,40.2725992 C584.236421,39.0325992 584.686421,37.3875992 583.848421,35.7535992 C582.797421,33.7045992 580.396421,32.1395992 578.742421,30.6015992 C569.441421,21.9565992 559.339421,15.3495992 546.967421,11.9715992 C534.486421,8.56359923 519.935421,7.34259923 507.496421,11.2735992 C502.524421,12.8445992 498.110421,12.6835992 493.635421,15.6175992 C492.184421,16.5695992 492.028421,16.3145992 491.291421,17.9015992 C491.121421,18.2715992 492.666421,19.2565992 491.720421,19.8615992 C490.692421,20.5185992 489.557421,19.1825992 489.033421,18.0735992 C482.559421,22.7595992 476.493421,29.0065992 472.806421,36.1695992 C469.142421,43.2875992 468.806421,51.6495992 467.407421,59.3845992 C460.954421,52.0125992 452.226421,48.4785992 442.737421,52.0225992 C434.466421,55.1105992 428.057421,61.8985992 426.439421,70.6925992 C425.452421,76.0535992 426.530421,81.4825992 428.965421,86.3195992 C430.018421,88.4095992 431.293421,90.7235992 433.229421,92.1305992 C434.760421,93.2425992 437.382421,93.0865992 438.103421,95.0925992 C439.208421,98.1655992 432.826421,104.802599 431.169421,107.492599 C428.172421,112.360599 425.387421,117.387599 423.267421,122.704599 C415.666421,111.967599 408.390421,100.240599 399.747421,90.3405992 C391.590421,80.9965992 381.866421,72.6165992 372.329421,64.7185992 C352.535421,48.3265992 331.953421,32.9265992 309.811421,19.8675992 C289.194421,7.70759923 264.290421,0.956599232 240.262421,3.34359923 C216.785421,5.67659923 198.811421,20.5245992 183.686421,37.6495992 C154.604421,70.5765992 136.792421,117.507599 135.052421,161.338599 C134.529421,174.505599 135.532421,187.500599 138.784421,200.271599 C140.333421,206.352599 140.108421,212.333599 141.008421,218.492599 C142.024421,225.440599 143.781421,232.363599 145.480421,239.169599 C151.952421,265.096599 160.198421,291.003599 169.451421,316.071599 C174.262421,329.107599 180.083421,341.851599 187.958421,353.346599 C191.595421,358.656599 196.307421,362.810599 200.221421,367.852599 C204.018421,372.742599 205.021421,378.744599 205.856421,384.744599 C207.858421,399.131599 209.186421,413.579599 210.390421,428.050599 C210.901421,434.183599 211.498421,440.262599 212.310421,446.352599 C213.018421,451.662599 211.237421,451.401599 206.770421,453.204599 C207.676421,448.433599 186.334421,451.679599 184.319421,452.005599 C182.126421,452.359599 179.804421,452.364599 178.077421,452.646599 C176.146421,452.960599 174.256421,453.415599 172.032421,453.351599 C168.763421,453.257599 162.642421,452.422599 161.394421,456.595599 C160.535421,451.757599 154.861421,457.047599 159.059421,456.149599 C154.750421,456.631599 150.353421,455.829599 145.992421,456.235599 C140.994421,456.699599 135.953421,457.141599 130.990421,457.893599 C127.535421,458.416599 124.238421,459.747599 120.777421,460.133599 C116.348421,460.628599 111.726421,460.582599 107.254421,460.976599 C90.7594212,462.431599 73.6624212,466.029599 57.6284212,470.149599 C53.9964212,471.082599 49.8234212,471.745599 46.3534212,473.243599 C45.4244212,473.643599 44.5884212,474.539599 43.6984212,474.883599 C42.2064212,475.459599 42.4104212,475.061599 41.0854212,475.325599 C33.1464212,476.912599 24.9564212,479.504599 17.0184212,481.538599 C12.6154212,482.667599 5.45342125,483.685599 1.86142125,486.758599 C0.251421245,488.134599 -1.15557875,490.575599 1.42442125,492.139599 C3.48542125,493.388599 6.42742125,491.394599 8.09542125,490.316599 C6.60942125,494.189599 3.80642125,496.119599 5.32042125,500.525599 C6.51542125,504.007599 9.21342125,508.298599 13.3644212,506.052599 C13.9204212,507.345599 14.1454212,509.917599 15.7824212,510.392599 C17.2534212,510.819599 18.3184212,508.955599 19.7594212,509.394599 C20.2754212,509.551599 20.0794212,510.526599 20.5414212,510.781599 C21.3374212,511.219599 22.1444212,511.405599 23.0564212,511.714599 C23.8404212,511.980599 25.1024212,512.526599 25.9204212,512.584599 C26.4394212,512.621599 27.6624212,511.733599 27.6584212,511.733599 C28.8504212,511.914599 29.4914212,514.195599 30.3494212,514.854599 C31.4634212,515.710599 32.3834212,515.905599 33.7784212,516.215599 C36.6784212,516.859599 40.4164212,517.963599 42.3304212,514.994599 C41.8924212,517.114599 44.7754212,516.906599 46.0474212,517.175599 C45.9064212,516.058599 45.2894212,515.035599 44.3374212,514.422599 C47.1814212,514.610599 46.0284212,517.437599 48.1304212,518.184599 C49.6284212,518.715599 49.4584212,517.365599 50.6044212,517.215599 C52.1144212,517.018599 53.2604212,518.114599 55.6184212,517.103599 C56.1294212,519.374599 56.3164212,521.664599 59.1054212,522.003599 C60.7424212,522.202599 64.5594212,519.246599 64.3434212,521.706599 C68.0004212,520.634599 69.3884212,521.359599 71.2994212,524.582599 C71.6224212,522.603599 73.1854212,523.177599 74.6194212,523.055599 C76.8924212,522.861599 76.9504212,523.044599 78.7124212,521.757599 C78.8734212,521.640599 80.2594212,518.465599 80.8754212,520.438599 C81.1524212,521.322599 79.3214212,523.402599 78.6434212,523.931599 C79.4854212,524.357599 82.2444212,525.848599 83.3054212,525.574599 C84.2234212,525.337599 84.2264212,523.768599 85.3294212,523.687599 C85.0594212,524.589599 84.7904212,525.492599 84.5194212,526.394599 C86.6654212,526.706599 88.4584212,525.270599 90.1534212,524.218599 C91.7694212,528.304599 96.3884212,526.002599 98.9004212,529.077599 C100.229421,530.704599 100.291421,531.940599 102.823421,532.365599 C105.414421,532.800599 107.677421,531.663599 109.879421,533.800599 C109.181421,532.474599 107.442421,531.374599 109.170421,529.949599 C110.346421,531.618599 110.953421,533.628599 112.309421,535.180599 C112.496421,534.391599 112.683421,533.602599 112.870421,532.812599 C116.405421,536.593599 120.855421,536.626599 125.383421,538.722599 L125.383421,535.955599 C128.625421,540.903599 128.798421,537.772599 132.671421,535.751599 C132.408421,537.206599 132.144421,538.661599 131.881421,540.115599 C134.668421,539.905599 137.272421,543.207599 139.560421,540.402599 C140.942421,542.720599 142.617421,541.579599 144.882421,542.315599 C146.170421,542.734599 147.129421,544.002599 148.382421,544.461599 C150.261421,545.149599 150.822421,545.117599 152.591421,545.716599 C154.164421,546.248599 155.058421,547.284599 157.027421,547.616599 C158.306421,547.832599 159.466421,547.816599 160.690421,547.757599 C161.163421,547.734599 161.007421,546.670599 162.058421,546.918599 C163.683421,547.303599 164.893421,549.341599 166.063421,550.386599 C167.823421,545.962599 172.751421,551.888599 175.133421,552.677599 C175.361421,551.543599 175.320421,550.176599 176.141421,549.244599 C177.105421,551.356599 177.473421,553.131599 179.474421,554.491599 C180.629421,555.276599 182.325421,555.838599 183.659421,556.125599 C184.502421,556.306599 186.034421,556.089599 186.564421,556.349599 C187.468421,556.792599 187.801421,557.975599 188.714421,558.086599 C189.251421,558.151599 190.047421,556.738599 190.449421,556.848599 C192.289421,557.350599 193.311421,559.585599 195.169421,560.794599 C200.698421,564.391599 207.656421,564.740599 213.816421,565.529599 C215.362421,565.726599 215.586421,565.304599 216.842421,566.211599 C217.512421,566.696599 217.208421,568.170599 218.032421,568.583599 C221.137421,570.139599 221.139421,566.819599 221.790421,564.756599 C222.817421,566.111599 222.994421,567.900599 224.399421,568.978599 C225.166421,568.956599 225.934421,568.973599 226.700421,569.030599 C227.132421,569.523599 227.416421,570.092599 227.548421,570.737599 C229.408421,571.993599 231.515421,571.556599 233.436421,572.499599 C234.066421,572.808599 235.182421,574.677599 235.958421,575.214599 C237.347421,576.176599 239.495421,576.690599 241.082421,577.108599 C244.410421,577.984599 249.182421,576.820599 251.162421,580.295599 C253.791421,577.477599 252.774421,580.842599 254.559421,581.549599 C255.613421,581.966599 257.198421,580.307599 258.367421,580.472599 C260.472421,580.768599 261.230421,583.047599 261.904421,584.704599 C263.186421,584.418599 262.306421,580.791599 262.270421,579.996599 C263.863421,579.808599 264.217421,584.003599 264.492421,584.925599 C267.007421,583.714599 262.879421,579.945599 265.583421,578.736599 C265.335421,581.947599 267.894421,584.591599 263.324421,585.051599 C263.955421,586.985599 278.695421,589.133599 279.719421,587.426599 C279.946421,590.582599 282.066421,587.634599 282.848421,586.554599 C282.936421,588.395599 282.309421,591.008599 284.375421,591.864599 C285.779421,592.445599 288.945421,590.942599 289.496421,589.566599 C290.125421,591.668599 291.179421,591.600599 292.489421,592.935599 C293.389421,593.852599 293.982421,595.442599 294.926421,596.210599 C296.663421,597.623599 299.894421,597.407599 301.918421,597.091599 C305.878421,596.473599 305.410421,595.714599 306.821421,599.830599 C307.140421,598.268599 308.140421,595.001599 309.884421,597.430599 C310.994421,598.973599 308.631421,602.374599 307.948421,603.729599 C309.474421,602.891599 310.989421,601.897599 312.725421,601.536599 C312.822421,602.071599 312.911421,603.206599 312.655421,603.701599 C312.707421,603.601599 314.559421,604.843599 315.246421,605.187599 C315.081421,605.104599 315.789421,602.012599 315.769421,602.113599 C318.212421,603.621599 316.517421,606.504599 318.681421,607.991599 C319.240421,608.376599 320.552421,607.927599 321.228421,608.161599 C322.405421,608.569599 323.423421,609.672599 324.469421,610.317599 C323.634421,609.197599 323.754421,607.317599 323.811421,606.024599 C324.343421,606.318599 324.723421,607.418599 325.260421,607.505599 C325.463421,607.538599 327.568421,607.817599 327.554421,607.807599 C329.745421,609.341599 329.294421,609.534599 327.413421,611.379599 C328.085421,612.435599 330.894421,610.600599 331.654421,610.295599 C331.813421,610.708599 331.854421,612.208599 332.153421,612.476599 C332.334421,612.920599 332.516421,613.364599 332.698421,613.808599 C333.259421,613.390599 333.861421,613.250599 334.503421,613.389599 C334.909421,613.530599 338.078421,614.819599 338.293421,614.378599 C337.600421,614.154599 336.971421,613.810599 336.409421,613.347599 C338.238421,611.703599 339.441421,610.829599 341.126421,613.203599 C341.338421,613.502599 340.609421,614.576599 340.825421,614.966599 C341.630421,616.418599 343.284421,617.573599 344.407421,618.756599 C344.872421,617.123599 343.790421,613.034599 346.372421,613.183599 C348.435421,613.301599 350.004421,618.299599 349.290421,619.853599 C350.110421,618.956599 355.006421,618.065599 355.930421,618.345599 C358.543421,619.137599 357.810421,621.553599 361.025421,618.013599 C363.217421,619.526599 361.285421,620.099599 361.680421,621.943599 C362.259421,622.064599 362.807421,621.921599 363.326421,621.514599 C362.938421,629.351599 368.721421,623.363599 372.476421,624.560599 C373.950421,625.030599 374.327421,626.703599 375.909421,627.192599 C376.746421,627.450599 377.677421,626.839599 378.491421,626.988599 C379.143421,626.895599 379.791421,626.780599 380.435421,626.643599 C381.251421,626.234599 381.634421,626.691599 381.584421,628.015599 C382.896421,628.695599 382.400421,628.961599 383.934421,629.093599 C384.922421,629.179599 385.831421,628.151599 386.954421,628.326599 C388.891421,628.630599 388.635421,630.117599 389.873421,630.894599 C390.987421,631.594599 392.243421,631.571599 393.615421,631.436599 C394.314421,631.367599 396.277421,630.466599 396.513421,630.463599 C397.979421,630.443599 397.184421,630.131599 398.944421,631.390599 C400.314421,632.372599 400.889421,633.008599 402.571421,633.460599 C404.500421,633.977599 407.922421,635.108599 409.220421,633.714599 C410.973421,636.342599 412.346421,634.413599 414.660421,634.587599 C415.844421,634.677599 416.032421,635.138599 417.086421,635.322599 C418.794421,635.620599 420.925421,635.362599 422.742421,635.945599 C425.605421,636.865599 425.928421,637.327599 428.854421,637.451599 C429.382421,637.245599 429.910421,637.038599 430.437421,636.832599 C430.595421,637.713599 431.010421,638.432599 431.683421,638.989599 C433.320421,639.332599 434.395421,638.506599 435.745421,637.601599 C436.751421,640.734599 440.015421,641.008599 442.807421,641.420599 C447.312421,642.085599 451.620421,642.448599 455.964421,643.929599 C459.633421,645.179599 463.309421,646.583599 466.838421,648.184599 C469.944421,649.593599 472.875421,651.700599 476.389421,650.711599 C484.351421,648.469599 492.067421,640.296599 498.728421,635.603599 C506.618421,630.045599 515.127421,625.465599 523.371421,620.468599 C556.191421,600.574599 590.864421,583.745599 623.224421,563.111599 C640.891421,551.846599 657.284421,538.461599 676.257421,529.347599 C673.556421,540.508599 668.958421,551.838599 669.789421,563.523599 C670.123421,568.232599 671.510421,573.795599 675.162421,577.082599 C679.677421,581.147599 684.706421,578.559599 689.024421,575.655599 C698.277421,569.434599 704.447421,560.356599 711.372421,551.832599 C719.563421,541.748599 725.916421,530.914599 731.931421,519.421599 C733.372421,521.444599 732.276421,524.833599 732.297421,527.076599 C732.325421,529.938599 733.097421,532.696599 734.424421,535.251599 C737.850421,541.845599 744.370421,543.444599 750.261421,538.926599 C761.599421,530.231599 768.179421,514.746599 774.254421,502.276599 C777.719421,508.722599 782.637421,516.836599 790.958421,512.232599 C797.824421,508.433599 801.858421,499.944599 803.958421,492.754599 C810.090421,471.766599 808.147421,450.387599 809.089421,428.873599" id="react-path-204"></path><path d="M798.676721,302.805799 C797.893721,300.903799 797.549721,301.214799 798.989721,299.370799 C800.111721,300.475799 799.213721,301.388799 798.676721,302.805799 M833.376721,417.918799 C831.174721,411.658799 832.534721,404.860799 831.197721,398.439799 C830.583721,395.493799 829.614721,392.635799 829.265721,389.636799 C829.110721,388.305799 827.925721,382.314799 828.732721,381.371799 C826.248721,379.867799 826.240721,378.754799 825.666721,375.805799 C826.551721,374.866799 826.440721,374.065799 825.332721,373.400799 C824.608721,372.524799 823.883721,371.647799 823.158721,370.771799 C826.327721,372.320799 824.452721,368.355799 824.129721,366.070799 C823.873721,364.264799 823.701721,362.380799 823.099721,360.649799 C822.358721,358.521799 820.710721,357.445799 824.138721,357.445799 C823.010721,356.162799 821.323721,354.838799 820.761721,353.267799 C819.953721,351.006799 821.286721,348.018799 819.638721,346.021799 C818.719721,344.907799 813.982721,344.471799 814.813721,342.065799 C815.236721,340.839799 817.156721,341.754799 817.750721,340.895799 C820.085721,337.519799 813.191721,336.120799 812.853721,334.684799 C812.415721,332.822799 814.905721,332.406799 815.058721,330.665799 C815.207721,328.961799 812.558721,326.161799 811.858721,324.637799 C810.904721,324.869799 809.858721,326.378799 808.766721,325.657799 C808.559721,325.521799 808.870721,319.622799 808.622721,318.839799 C808.378721,318.069799 807.879721,316.027799 807.701721,315.649799 C806.994721,314.148799 804.971721,313.417799 804.650721,311.644799 C804.458721,310.586799 808.604721,308.984799 803.849721,308.934799 C805.557721,305.924799 802.428721,304.095799 801.289721,301.523799 C799.825721,298.216799 798.962721,294.644799 797.458721,291.320799 C795.996721,288.089799 794.361721,285.023799 792.253721,282.166799 C790.345721,279.579799 789.520721,277.091799 787.995721,274.359799 C787.690721,274.119799 787.385721,273.879799 787.080721,273.639799 C785.808721,273.823799 785.400721,273.244799 785.856721,271.901799 C784.883721,270.460799 784.160721,268.922799 783.302721,267.417799 C782.305721,265.668799 780.960721,264.242799 779.930721,262.541799 C778.563721,260.286799 778.159721,257.743799 776.614721,255.481799 C774.715721,252.698799 772.579721,250.244799 770.818721,247.357799 C768.612721,243.740799 766.169721,241.492799 763.393721,238.691799 C762.072721,237.357799 761.913721,234.025799 760.294721,232.131799 C758.531721,230.068799 756.790721,229.509799 755.568721,226.801799 C753.978721,223.278799 751.645721,221.596799 749.374721,218.551799 C747.500721,216.039799 746.585721,213.152799 744.521721,210.722799 C742.746721,208.635799 740.731721,206.728799 738.836721,204.749799 C736.444721,202.250799 734.678721,199.213799 732.188721,196.837799 C732.547721,197.180799 730.021721,195.178799 730.148721,195.242799 C729.589721,194.957799 727.785721,194.728799 728.048721,194.883799 C724.290721,192.674799 719.581721,184.589799 713.926721,188.873799 C710.951721,191.126799 712.378721,195.258799 714.455721,197.502799 C715.347721,198.466799 719.982721,203.218799 720.983721,201.214799 C722.064721,202.746799 725.393721,210.152799 728.162721,208.030799 C727.880721,210.561799 729.346721,209.721799 730.314721,211.432799 C730.951721,212.561799 730.641721,213.115799 731.105721,214.877799 C732.382721,219.721799 737.254721,224.452799 739.849721,228.676799 C746.308721,239.189799 753.433721,249.160799 759.898721,259.685799 C766.059721,269.716799 772.959721,279.234799 778.870721,289.400799 C785.593721,300.960799 793.969721,311.872799 799.034721,324.334799 C799.205721,324.753799 800.612721,325.416799 800.961721,326.045799 C801.570721,327.138799 801.439721,329.028799 801.831721,330.266799 C803.190721,334.558799 805.393721,338.783799 807.903721,342.338799 C810.105721,345.457799 810.265721,349.696799 811.780721,353.355799 C813.917721,358.512799 816.174721,363.615799 818.250721,368.798799 C821.481721,376.865799 823.670721,384.597799 825.903721,393.019799 C827.350721,398.477799 828.501721,403.932799 828.962721,409.568799 C829.386721,414.751799 829.490721,420.150799 831.408721,425.057799 C832.716721,423.037799 834.257721,420.420799 833.376721,417.918799" id="react-path-205"></path><path d="M94.2392212,528.980299 C91.9172212,528.511299 89.7322212,527.885299 89.2402212,525.219299 C88.9032212,526.476299 88.5672212,527.733299 88.2302212,528.990299 C91.0572212,529.630299 93.8852212,530.271299 96.7122212,530.911299 C96.0522212,529.748299 95.5702212,529.249299 94.2392212,528.980299" id="react-path-206"></path><path d="M100.469621,91.4390992 C100.645621,90.6870992 100.873621,89.9500992 101.154621,89.2310992 C101.345621,89.9320992 102.281621,91.4480992 101.736621,92.1090992 C101.042621,92.9480992 100.340621,92.4730992 100.469621,91.4390992 M111.852621,69.7810992 C112.614621,70.1170992 114.263621,70.1820992 115.209621,70.4660992 C112.755621,72.5770992 112.323621,71.9560992 109.150621,71.7110992 C109.009621,69.5750992 109.877621,68.9120992 111.852621,69.7810992 M90.5816212,122.659099 C90.9106212,122.668099 91.2406212,122.676099 91.5716212,122.684099 C91.5916212,121.754099 91.5676212,120.825099 91.4976212,119.897099 C94.8436212,120.628099 92.9496212,114.781099 91.8986212,113.569099 C95.1626212,113.678099 96.7526212,103.344099 97.7866212,101.353099 C98.7046212,99.5850992 99.7446212,98.9010992 100.415621,96.7450992 C101.002621,94.8580992 101.637621,93.1600992 102.484621,91.3750992 C104.430621,87.2710992 106.983621,83.5440992 106.512621,78.7610992 C108.161621,82.3500992 109.611621,78.7670992 110.657621,77.0510992 C112.342621,74.2860992 116.453621,70.7580992 116.890621,67.4740992 C117.276621,64.5830992 115.128621,64.4300992 116.396621,61.7490992 C117.678621,59.0350992 118.732621,59.3070992 120.978621,58.4390992 C122.472621,57.8610992 122.769621,58.5630992 123.823621,56.6770992 C124.506621,55.4560992 124.265621,54.5460992 125.140621,53.5450992 C125.501621,53.8590992 125.912621,53.9890992 126.372621,53.9350992 C127.082621,52.9980992 127.548621,51.9540992 127.769621,50.8030992 C128.348621,49.2490992 128.628621,47.8220992 129.500621,46.3420992 C130.327621,44.9400992 131.795621,41.1890992 132.573621,40.5130992 C133.399621,39.7950992 138.084621,40.1600992 138.064621,40.1860992 C139.999621,37.7520992 136.448621,35.3270992 141.365621,35.8400992 C140.394621,34.0320992 143.805621,31.7880992 144.795621,30.7820992 C147.268621,28.2710992 147.465621,27.1090992 147.987621,23.9510992 C148.252621,22.3410992 146.522621,22.5270992 148.841621,22.1600992 C149.800621,22.0090992 150.720621,23.2350992 151.412621,23.0550992 C154.467621,22.2630992 151.271621,22.4140992 152.114621,21.1690992 C152.380621,20.7740992 153.739621,19.1800992 153.726621,19.1970992 C153.660621,19.2770992 154.032621,17.8100992 154.340621,17.4330992 C154.924621,17.3830992 155.499621,17.2810992 156.064621,17.1270992 C156.351621,16.5470992 156.605621,15.9530992 156.825621,15.3450992 C159.036621,13.5010992 162.344621,12.6760992 163.873621,10.6500992 C164.862621,9.34009923 164.566621,8.05709923 165.844621,6.75109923 C167.061621,5.50709923 168.671621,6.40809923 168.912621,3.59809923 C169.219621,0.0230992322 165.379621,-1.56790077 163.808621,2.04009923 C159.548621,-3.20690077 141.742621,16.0440992 139.685621,18.5590992 C130.750621,29.4770992 121.968621,40.6650992 114.639621,52.7380992 C107.498621,64.5020992 101.637621,76.8800992 97.0566212,89.8550992 C94.8476212,96.1110992 93.5026212,102.339099 92.1536212,108.810099 C91.7006212,110.977099 88.3156212,120.634099 89.7246212,122.795099 C90.0096212,122.750099 90.2956212,122.704099 90.5816212,122.659099" id="react-path-207"></path><path d="M793.886621,390.398799 C795.391621,389.394799 795.391621,389.394799 795.655621,387.497799 C793.637621,387.865799 793.637621,387.865799 793.886621,390.398799" id="react-path-208"></path><path d="M52.0497212,518.023999 C52.0687212,518.021999 52.0827212,518.026999 52.0937212,518.037999 C52.0617212,517.996999 51.9457212,517.875999 52.0497212,518.023999" id="react-path-209"></path><path d="M51.0399212,519.041599 C51.5049212,520.046599 52.2519212,520.296599 53.2819212,519.789599 C53.6879212,520.369599 49.7599212,516.170599 51.0399212,519.041599" id="react-path-210"></path><path d="M118.965721,60.3464992 C116.608721,64.9674992 119.560721,61.6064992 119.409721,63.1074992 C119.508721,62.1214992 119.917721,60.7164992 118.965721,60.3464992" id="react-path-211"></path><path d="M502.157121,131.867799 C503.178121,140.153799 514.514121,136.234799 517.064121,131.222799 C518.921121,127.573799 523.610121,113.154799 518.565121,110.108799 C514.825121,107.850799 514.026121,117.582799 513.104121,119.756799 C511.559121,123.397799 510.352121,120.817799 506.917121,121.751799 C503.126121,122.782799 501.735121,128.431799 502.157121,131.867799" id="react-path-212"></path><path d="M489.771421,116.701499 C493.823421,117.601499 497.795421,117.137499 500.673421,113.937499 C502.267421,112.165499 504.388421,108.650499 501.518421,106.935499 C498.917421,105.382499 495.968421,109.019499 493.229421,108.267499 C489.504421,107.244499 491.422421,103.250499 490.144421,100.612499 C485.448421,103.316499 482.828421,115.159499 489.771421,116.701499" id="react-path-213"></path><path d="M493.972621,137.623889 C490.066621,137.615899 490.034621,142.419899 492.073621,144.478899 C494.024621,146.448899 498.958621,148.442899 501.603621,146.910899 C506.821621,143.886899 497.133621,137.935899 493.972621,137.623889" id="react-path-214"></path><path d="M266.704021,328.660999 C267.538021,329.065999 269.996021,331.149999 271.032021,330.208999 C269.570021,328.735999 268.107021,327.262999 266.645021,325.789999 C265.837021,326.675999 265.283021,327.970999 266.704021,328.660999" id="react-path-215"></path><path d="M248.245021,117.899999 C247.830021,118.209999 247.414021,118.518999 246.999021,118.827999 C248.400021,119.994999 248.365021,120.341999 249.777021,119.236999 C249.358021,118.684999 248.848021,118.239999 248.245021,117.899999" id="react-path-216"></path><path d="M512.974521,392.815099 C512.189521,391.405099 510.706521,394.005099 509.703521,394.428099 C508.071521,395.115099 506.732521,391.475099 507.200521,395.838099 C503.511521,394.149099 501.272521,398.024099 498.893521,400.042099 C495.532521,402.894099 491.421521,404.441099 489.179521,408.491099 C499.732521,410.960099 511.327521,401.862099 519.196521,395.886099 C520.480521,394.910099 526.898521,389.987099 522.548521,389.511099 C520.769521,389.317099 514.294521,395.185099 512.974521,392.815099" id="react-path-217"></path><path d="M509.844621,384.272799 C511.912621,382.644799 507.453621,382.495799 506.748621,382.324799 C506.809621,383.619799 506.868621,384.913799 506.929621,386.208799 C507.927621,385.603799 508.899621,384.957799 509.844621,384.272799" id="react-path-218"></path><path d="M502.079021,389.703299 C502.697021,389.317299 504.420021,388.112299 503.248021,387.214299 C502.189021,387.888299 501.432021,388.988299 501.266021,390.243299 C501.537021,390.063299 501.808021,389.883299 502.079021,389.703299" id="react-path-219"></path><path d="M331.166921,284.694999 C329.845921,285.212999 329.253921,286.031999 329.392921,287.153999 C331.422921,286.738999 331.035921,284.821999 331.166921,284.694999" id="react-path-220"></path></g></g></g></svg>